<?xml version="1.0" standalone="no"?>
<!DOCTYPE svg PUBLIC "-//W3C//DTD SVG 20010904//EN"
 "http://www.w3.org/TR/2001/REC-SVG-20010904/DTD/svg10.dtd">
<svg version="1.0" xmlns="http://www.w3.org/2000/svg"
 width="1781.000000pt" height="1621.000000pt" viewBox="0 0 1781.000000 1621.000000"
 preserveAspectRatio="xMidYMid meet">
<metadata>
Created by potrace 1.14, written by Peter Selinger 2001-2017
</metadata>
<g transform="translate(0.000000,1621.000000) scale(0.100000,-0.100000)"
fill="#000000" stroke="none">
<path d="M8907 14179 c-14 -8 -17 -24 -17 -78 l0 -68 -31 -7 c-17 -3 -60 -6
-95 -6 -57 0 -64 -2 -64 -20 0 -11 3 -20 8 -21 4 0 44 -2 90 -3 46 -2 85 -6
88 -9 3 -3 2 -79 -2 -170 l-7 -164 -348 -7 -348 -7 -53 30 c-59 32 -154 55
-196 47 -15 -3 -48 -8 -73 -10 -70 -8 -155 -43 -184 -77 -29 -36 -33 -87 -9
-144 14 -34 14 -43 -2 -105 -17 -65 -17 -72 -1 -123 13 -40 17 -90 17 -196 0
-205 -35 -615 -54 -630 -6 -4 -56 -11 -111 -14 -126 -7 -160 -18 -238 -71 -57
-39 -62 -45 -65 -83 -2 -25 2 -46 11 -54 26 -26 37 -57 37 -103 0 -53 -14 -94
-41 -119 -15 -14 -19 -26 -14 -46 4 -14 11 -51 16 -81 10 -60 13 -813 4 -926
-3 -38 -10 -175 -16 -304 -25 -567 -22 -528 -58 -600 -19 -35 -45 -82 -58
-104 -14 -21 -70 -120 -126 -220 -55 -100 -118 -212 -140 -251 -64 -112 -87
-157 -87 -172 0 -8 4 -12 9 -9 5 4 11 3 13 -1 1 -5 30 -17 63 -28 l60 -20 -2
-430 c-2 -493 -14 -780 -32 -798 -6 -7 -42 -19 -79 -27 -61 -14 -67 -18 -70
-43 -5 -38 33 -116 108 -222 61 -87 63 -93 68 -162 3 -51 1 -73 -7 -73 -6 0
-16 11 -21 25 -5 14 -15 25 -21 25 -7 0 -10 3 -6 6 3 3 -32 67 -77 142 -45 76
-113 195 -151 265 -38 70 -87 149 -110 174 -41 45 -42 46 -67 29 -22 -14 -268
-281 -260 -281 2 0 -20 -25 -49 -55 -28 -30 -83 -93 -123 -140 -39 -47 -76
-89 -83 -95 -6 -5 -35 -39 -64 -75 -29 -36 -58 -69 -64 -75 -6 -5 -40 -44 -76
-85 -35 -41 -69 -79 -75 -85 -12 -11 -173 -199 -218 -254 -16 -20 -64 -72
-105 -117 -89 -94 -143 -160 -160 -192 -10 -19 -9 -28 9 -58 21 -32 103 -104
121 -104 4 0 18 -9 31 -20 12 -11 34 -28 48 -39 24 -19 25 -22 22 -133 -1 -62
-7 -230 -13 -373 -5 -143 -14 -361 -19 -485 -5 -124 -14 -355 -20 -515 -5
-159 -14 -342 -20 -405 -5 -63 -14 -218 -20 -345 -5 -126 -12 -240 -15 -252
-3 -12 -5 -61 -6 -110 0 -48 -5 -142 -10 -208 -5 -66 -9 -158 -10 -205 0 -47
-6 -175 -14 -285 -8 -110 -14 -236 -14 -280 -1 -44 -5 -150 -11 -235 -12 -197
-12 -263 -1 -256 5 4 11 1 13 -5 9 -26 162 -38 493 -39 182 0 449 -5 595 -10
146 -5 387 -12 535 -15 149 -3 405 -11 570 -17 385 -16 2387 -15 2850 0 187 6
662 14 1055 18 393 3 718 8 721 10 3 2 109 4 235 4 l229 1 -6 272 c-10 400
-19 580 -35 692 -15 103 -16 122 -34 555 -6 140 -15 296 -20 345 -5 50 -12
133 -15 185 -2 52 -9 160 -14 240 -6 80 -10 214 -11 298 0 85 -2 157 -4 161
-3 3 -7 78 -11 166 -3 88 -10 192 -15 231 -5 39 -9 163 -10 276 0 112 -5 294
-10 404 -6 109 -8 240 -4 289 l6 90 42 30 c22 16 58 40 79 53 46 29 50 66 11
103 -14 13 -63 71 -108 128 -44 57 -94 121 -111 142 -16 21 -74 94 -128 163
-54 69 -113 141 -130 160 -18 18 -32 36 -32 39 0 2 -29 36 -65 75 -36 38 -67
73 -69 78 -9 22 -117 158 -174 220 -34 38 -89 103 -122 144 -93 117 -177 210
-189 210 -35 0 -100 -71 -261 -284 -98 -130 -180 -236 -182 -236 -2 0 -3 25
-2 56 2 49 10 68 62 152 33 53 69 119 79 145 l18 48 -24 24 c-24 24 -44 29
-93 25 -24 -1 -43 29 -41 67 0 10 -4 61 -10 113 -6 52 -11 165 -12 250 0 85
-4 211 -10 280 -5 69 -10 214 -10 323 l0 197 53 0 c28 0 62 3 75 6 43 12 26
65 -71 219 -21 33 -60 101 -88 150 -125 223 -155 276 -208 363 -35 58 -64 95
-77 98 -30 8 -33 51 -44 654 -5 283 -14 580 -20 660 -21 310 -24 448 -10 536
13 81 12 87 -8 130 -26 52 -28 100 -7 169 20 64 12 99 -29 130 -53 40 -113 56
-206 56 -47 0 -91 3 -98 7 -8 6 -15 60 -22 173 -5 90 -12 187 -15 214 -3 28
-6 82 -6 120 0 39 -4 95 -9 125 -5 30 -12 90 -15 134 -5 66 -3 81 12 98 12 13
17 36 17 74 1 50 -2 58 -27 78 -23 18 -27 28 -22 49 4 14 15 33 26 43 34 31
20 113 -27 156 -65 58 -297 75 -399 29 -27 -12 -59 -31 -71 -42 -21 -19 -33
-20 -298 -17 -233 3 -278 5 -286 18 -6 8 -9 85 -7 174 l2 160 58 -3 c64 -3
127 14 127 34 0 18 -15 22 -100 24 -41 1 -78 5 -83 8 -4 2 -7 31 -6 62 3 69
-8 94 -34 80z m1017 -585 c16 -10 17 -15 7 -44 -6 -18 -11 -57 -11 -86 l0 -52
-82 1 c-82 2 -193 -8 -222 -19 -14 -5 -16 6 -16 79 0 103 3 113 44 134 68 35
209 29 280 -13z m-1869 6 c65 -19 77 -32 64 -66 -6 -16 -10 -60 -10 -98 2 -62
1 -68 -16 -62 -42 16 -162 24 -263 16 l-55 -4 -3 83 c-3 91 2 103 52 126 57
26 155 28 231 5z m1470 -86 c12 -12 15 -32 13 -83 l-3 -66 -555 -2 c-305 -1
-615 -4 -687 -7 l-133 -6 0 80 c0 74 1 80 23 85 45 10 134 12 724 13 538 1
604 0 618 -14z m365 -183 c24 -7 25 -10 31 -121 4 -63 9 -218 13 -345 6 -236
13 -383 21 -446 5 -34 3 -36 -35 -48 -22 -6 -60 -30 -85 -51 -45 -39 -48 -40
-120 -40 l-74 0 -1 469 c0 258 -3 489 -6 513 -6 45 -6 45 32 61 40 17 176 21
224 8z m-1893 -15 c35 -7 70 -19 78 -26 13 -11 15 -81 15 -522 l0 -509 -117 3
-117 3 -9 36 c-6 27 -17 40 -44 53 l-36 17 9 157 c5 86 9 295 9 464 0 336 -4
314 60 325 17 3 32 7 34 9 8 7 56 3 118 -10z m1547 -56 c14 -14 25 -279 26
-644 1 -280 -1 -321 -15 -335 -14 -14 -87 -16 -698 -16 l-682 0 -2 70 c-1 39
-4 265 -7 502 l-5 433 187 2 c382 6 1186 -2 1196 -12z m-1824 -977 l45 -15 -1
-112 c-1 -62 -4 -118 -8 -125 -5 -8 -48 -10 -150 -7 -104 4 -159 1 -205 -10
-35 -8 -67 -11 -73 -8 -7 5 -9 41 -5 105 3 55 1 101 -4 105 -27 16 16 49 101
78 34 11 256 3 300 -11z m2545 4 l50 -13 0 -103 0 -102 -150 0 c-82 0 -174 -4
-203 -10 -30 -6 -56 -9 -59 -6 -2 3 -4 30 -4 60 0 30 -7 67 -15 82 -8 15 -14
33 -14 40 0 21 63 45 101 39 19 -3 52 1 74 10 50 18 154 20 220 3z m-464 -126
c24 -25 29 -38 29 -79 0 -71 -19 -91 -100 -102 -35 -5 -466 -12 -957 -16
l-894 -7 -29 28 c-28 27 -30 34 -30 101 0 47 5 75 13 83 17 14 151 16 1130 19
l809 2 29 -29z m449 -179 l65 -17 2 -285 c1 -157 7 -541 12 -855 6 -313 12
-669 13 -790 l3 -220 -44 -69 c-24 -38 -74 -116 -112 -173 -38 -57 -69 -106
-69 -109 0 -10 -47 -70 -82 -106 -38 -38 -44 -53 -30 -75 10 -16 57 -33 93
-33 l29 0 1 -227 c1 -126 4 -421 8 -658 4 -254 3 -435 -2 -442 -11 -15 -53
-17 -61 -4 -5 7 -12 216 -16 413 0 4 -10 12 -21 19 -17 9 -23 8 -30 -2 -5 -8
-9 -110 -9 -226 l0 -213 -34 0 -33 0 -7 138 c-3 75 -9 322 -12 547 -3 226 -9
439 -14 473 -10 72 -24 94 -148 228 l-74 79 -38 -44 c-46 -53 -30 -60 -180 84
-58 55 -178 169 -267 253 l-163 154 17 31 c22 43 43 146 36 177 -3 14 -21 56
-40 93 l-34 68 2 317 c1 174 4 450 8 612 8 365 3 461 -25 515 -25 47 -76 70
-136 60 -21 -4 -40 -6 -43 -6 -14 3 -66 -32 -76 -50 -31 -59 -33 -97 -38 -745
l-6 -662 -33 -46 c-59 -82 -91 -164 -88 -226 3 -59 11 -85 34 -112 13 -16 11
-23 -28 -74 -46 -61 -208 -242 -327 -366 -47 -49 -79 -75 -89 -71 -8 3 -14 9
-14 14 0 27 -43 -2 -130 -89 -110 -111 -118 -126 -125 -265 -17 -336 -26 -541
-37 -799 l-11 -298 -127 0 c-141 0 -144 1 -151 65 -7 67 -3 1135 5 1208 l8 67
44 0 c57 0 57 13 3 105 -99 167 -291 544 -299 585 -4 24 -4 85 0 135 21 217
32 706 28 1243 -3 555 -4 574 -22 588 -22 16 -13 32 20 38 10 2 37 8 59 14
132 32 385 12 385 -31 0 -6 -7 -18 -16 -28 -28 -31 -34 -150 -39 -872 -2 -328
-6 -600 -8 -605 -3 -4 -8 -68 -11 -142 -3 -74 -11 -196 -17 -270 -7 -95 -7
-144 0 -163 l11 -28 97 3 c84 3 98 6 101 21 3 14 -4 17 -40 17 -24 0 -49 5
-56 12 -15 15 -16 269 -2 543 6 105 10 348 10 540 1 273 14 815 22 903 1 8 13
19 27 25 30 12 1931 31 1943 18 10 -9 10 -1712 0 -1886 -7 -129 -7 -130 -32
-133 -14 -2 -32 -6 -40 -9 -8 -3 -19 -5 -23 -4 -5 1 -7 -4 -5 -11 6 -16 152
-18 168 -3 29 30 36 965 14 1852 l-6 243 38 16 c104 44 207 53 314 26z m-1318
-373 c26 -34 33 -76 33 -184 -5 -954 -12 -1171 -35 -1185 -12 -7 -109 5 -119
15 -3 4 -10 151 -14 328 -10 404 5 973 28 1017 24 46 76 51 107 9z m-2 -1449
c55 -39 90 -105 90 -170 0 -52 -3 -59 -37 -92 -21 -19 -47 -40 -57 -46 -18 -9
-7 -23 114 -146 73 -75 135 -134 137 -133 7 7 373 -353 373 -367 0 -5 -18 -31
-41 -58 -22 -27 -45 -63 -50 -81 -7 -20 -8 -223 -5 -557 4 -289 3 -543 -2
-565 -6 -33 -12 -41 -33 -43 -26 -3 -26 -2 -32 85 -4 48 -7 183 -7 298 0 116
-2 253 -5 305 -3 52 -7 159 -10 237 -3 90 -9 154 -18 176 -14 32 -81 97 -102
97 -5 0 -33 11 -62 24 -48 23 -55 30 -90 103 -58 119 -136 166 -243 148 -63
-11 -146 -71 -191 -140 -52 -80 -57 -85 -80 -85 -38 0 -111 -43 -140 -83 -58
-81 -67 -160 -79 -692 -5 -231 -11 -430 -15 -441 -6 -20 -61 -42 -73 -29 -3 2
1 195 8 427 8 233 16 518 19 634 l6 212 45 49 c25 28 83 95 130 149 47 54 117
133 155 174 39 41 95 103 124 138 30 34 57 62 62 62 21 0 180 -133 296 -248
73 -73 138 -132 144 -132 15 0 3 46 -22 81 -11 15 -70 72 -132 126 -61 53
-144 127 -182 164 -105 99 -108 99 -158 46 -23 -24 -85 -95 -137 -157 -52 -62
-102 -120 -111 -129 -9 -9 -38 -43 -64 -76 -26 -33 -72 -85 -101 -115 -29 -30
-62 -67 -74 -83 l-22 -27 -18 22 c-18 23 -18 23 23 68 23 25 80 91 127 145 47
55 122 138 166 185 99 103 144 165 144 197 0 13 -13 47 -30 76 -45 81 -37 151
27 227 59 71 165 89 233 40z m-1580 -444 c179 -367 201 -416 182 -416 -9 0
-57 7 -107 16 -49 8 -112 18 -140 22 -64 9 -195 -4 -285 -28 -38 -11 -100 -13
-100 -4 0 3 28 53 62 112 71 123 216 407 240 469 12 33 20 41 33 37 9 -4 61
-97 115 -208z m3159 162 c86 -135 305 -563 296 -578 -3 -6 -21 -10 -40 -10
-18 0 -35 -6 -38 -13 -6 -15 0 -290 13 -652 5 -148 11 -364 12 -480 l3 -210
-70 -6 c-38 -4 -154 -7 -257 -8 -187 -1 -188 -1 -192 22 -5 23 -25 1009 -26
1241 0 128 0 128 22 123 47 -12 297 -19 391 -12 83 6 98 9 95 23 -6 32 -54 44
-176 43 -64 0 -139 -4 -167 -10 -95 -18 -225 -24 -225 -11 0 12 45 89 136 230
30 47 86 140 125 208 39 67 74 122 78 122 3 0 13 -10 20 -22z m-1538 -580 c35
-23 84 -108 93 -160 7 -40 12 -45 54 -50 21 -3 60 -15 86 -26 97 -43 113 -135
125 -702 4 -212 6 -387 3 -390 -9 -11 -52 57 -83 129 -116 273 -174 432 -163
447 99 132 165 280 138 307 -11 11 -41 -28 -77 -98 -64 -128 -165 -215 -250
-215 -91 0 -205 89 -284 223 -43 72 -86 118 -99 105 -10 -11 39 -119 87 -191
27 -41 67 -91 89 -110 22 -19 40 -38 40 -43 0 -9 -189 -366 -242 -456 -76
-128 -72 -149 -64 357 4 271 12 473 19 508 12 63 53 122 94 138 13 5 42 11 64
14 41 5 98 30 100 43 7 70 47 142 95 169 53 31 129 31 175 1z m-1533 -24 l32
-6 0 -679 c0 -373 -3 -679 -7 -681 -5 -2 -112 -2 -239 0 l-231 3 4 182 c2 100
8 299 14 442 5 143 10 303 9 355 0 52 3 161 6 242 l7 147 186 1 c103 0 202 -3
219 -6z m786 -158 c15 -33 16 -60 7 -318 -9 -252 -20 -703 -21 -845 l0 -53
-131 0 -130 0 6 118 c3 64 8 326 9 582 2 293 7 474 13 490 6 14 39 56 74 94
l63 69 46 -51 c26 -27 54 -66 64 -86z m1493 120 c4 -8 24 -32 44 -54 20 -21
43 -52 52 -68 19 -38 32 -383 32 -859 l0 -350 -158 -3 -159 -3 5 586 c5 662
-5 588 96 703 56 63 74 73 88 48z m-700 -753 c3 -10 24 -56 45 -103 22 -47 48
-105 58 -130 39 -95 113 -246 135 -276 13 -17 27 -42 30 -55 l6 -24 -421 3
c-329 2 -419 5 -414 15 4 6 27 42 51 78 24 36 43 71 43 78 0 6 4 11 9 11 11 0
105 148 146 230 15 30 43 81 63 113 l35 57 51 1 c28 0 69 4 91 8 60 13 65 12
72 -6z m2318 -647 c206 -260 399 -496 407 -496 5 0 7 -4 4 -8 -2 -4 18 -33 45
-63 28 -29 50 -55 49 -57 -3 -7 193 -232 202 -232 6 0 8 -3 4 -7 -3 -4 7 -20
23 -37 25 -27 53 -62 151 -186 11 -14 36 -47 56 -73 l37 -48 -28 -22 c-16 -12
-36 -29 -45 -37 -9 -8 -25 -20 -36 -26 -18 -11 -19 -23 -15 -225 2 -118 9
-277 16 -354 6 -77 12 -266 13 -420 0 -154 5 -338 11 -410 5 -71 10 -160 10
-196 1 -37 5 -118 11 -180 5 -63 9 -145 9 -184 0 -38 4 -144 10 -235 6 -91 16
-244 21 -340 6 -96 15 -247 20 -335 29 -479 50 -957 50 -1106 l0 -106 -147 -7
c-82 -4 -247 -9 -369 -12 l-221 -6 -7 88 c-4 49 -11 188 -17 309 -5 121 -14
315 -19 430 -5 116 -9 224 -10 242 0 31 1 31 58 37 78 7 78 7 82 25 7 38 -1
653 -10 723 -5 43 -16 91 -24 107 -16 30 -59 51 -107 51 -33 0 -38 12 -38 92
0 64 -4 61 93 72 54 7 76 20 76 45 0 23 -58 121 -72 121 -6 0 -9 3 -5 6 5 5
-16 35 -55 76 -10 10 -16 18 -13 18 7 0 -24 48 -74 113 -24 31 -47 57 -51 57
-4 0 -11 10 -17 23 -6 12 -24 38 -41 57 -33 38 -71 85 -200 250 -45 58 -105
132 -133 165 -86 103 -99 139 -99 286 0 69 -4 206 -9 305 -6 98 -12 256 -15
351 -6 189 -10 176 56 188 130 26 452 28 748 6 166 -13 245 -23 353 -48 37 -9
70 -13 73 -10 8 8 -49 68 -67 70 -10 2 -23 8 -30 14 -8 5 -25 13 -39 16 -14 3
-61 15 -105 27 -240 65 -548 69 -850 9 -27 -5 -71 -12 -96 -15 l-46 -6 -7 44
c-4 24 -7 82 -7 129 0 46 -6 158 -13 249 -13 174 -9 213 25 262 11 14 19 31
19 37 0 6 4 11 8 11 9 0 82 106 82 119 0 5 4 11 8 13 5 2 42 48 82 103 68 94
159 202 170 204 3 0 28 -28 55 -63z m-4815 -68 c138 -212 289 -459 341 -558
23 -42 24 -57 27 -241 3 -164 -6 -301 -21 -315 -2 -2 -27 3 -57 11 -30 9 -71
18 -90 21 -19 3 -38 8 -41 10 -4 2 -28 6 -55 9 -26 4 -52 9 -56 11 -5 3 -83
12 -174 19 -170 14 -321 9 -554 -16 -58 -7 -112 -12 -120 -11 -8 0 -31 -4 -50
-8 -19 -5 -55 -12 -80 -15 -24 -4 -47 -8 -51 -10 -3 -2 -20 -7 -36 -10 -47 -8
-123 -43 -123 -56 0 -12 44 -12 605 11 297 13 632 8 695 -9 19 -5 69 -15 112
-22 l76 -13 6 -75 c4 -42 2 -258 -2 -481 -10 -462 -6 -440 -105 -548 -29 -31
-70 -79 -91 -105 -22 -26 -48 -53 -59 -59 -20 -10 -20 -8 -14 345 8 393 4 437
-44 492 -27 31 -33 33 -93 33 -143 0 -201 -67 -211 -243 -13 -239 -15 -306
-16 -480 l-2 -190 99 -6 c55 -4 125 -10 157 -14 l58 -7 -184 -187 c-101 -102
-187 -196 -191 -208 -4 -13 -12 -23 -17 -23 -6 0 -8 -4 -5 -9 3 -5 0 -11 -8
-14 -19 -8 -31 -66 -17 -80 7 -7 63 -14 134 -17 l122 -5 1 -107 c2 -124 -6
-142 -69 -159 -50 -13 -92 -55 -107 -107 -20 -67 -49 -454 -50 -664 l0 -78 80
0 80 0 0 -35 c0 -19 -4 -78 -9 -132 -5 -54 -15 -170 -21 -258 -35 -519 -51
-698 -62 -712 -12 -15 -287 -17 -438 -3 -58 6 -139 12 -180 14 -41 3 -119 8
-172 12 l-98 7 0 141 c0 78 5 195 10 261 6 66 11 152 11 190 0 39 4 120 10
180 6 61 10 133 10 160 0 28 4 95 10 150 5 56 10 125 10 155 0 30 7 132 14
225 8 94 14 198 14 232 0 34 4 156 10 270 6 114 15 332 21 483 21 550 31 789
40 980 6 107 13 283 17 390 7 219 8 215 -64 224 -50 6 -98 29 -129 63 l-24 26
61 71 c34 39 91 104 128 145 128 143 177 198 271 306 52 60 122 139 155 175
33 36 105 118 160 180 55 63 120 137 145 165 26 27 73 81 105 119 91 105 109
124 116 120 3 -2 39 -54 79 -116z m4383 106 c4 -4 -5 -28 -19 -54 -35 -64 -82
-90 -163 -90 -34 0 -126 -4 -204 -9 -78 -6 -641 -12 -1252 -15 -610 -3 -1350
-11 -1645 -18 -345 -7 -563 -8 -614 -2 l-79 9 -43 64 c-24 35 -44 67 -44 71 0
23 456 23 1980 4 281 -4 592 -1 785 6 176 6 381 11 455 11 74 0 252 6 395 13
311 16 439 18 448 10z m-140 -291 c4 -21 6 -123 6 -228 0 -104 5 -257 11 -340
23 -336 30 -488 30 -635 0 -155 10 -461 31 -980 7 -151 11 -295 10 -320 -1
-25 3 -116 9 -203 6 -86 10 -201 11 -255 0 -53 6 -227 14 -387 8 -159 15 -394
15 -522 0 -127 2 -237 4 -245 3 -7 7 -159 10 -338 4 -179 11 -408 17 -509 6
-103 7 -187 2 -192 -5 -5 -91 -6 -193 -1 -175 7 -185 8 -186 27 -10 242 -15
429 -19 805 -3 250 -10 583 -16 740 -6 157 -9 389 -7 515 3 196 6 235 21 262
9 18 26 37 36 42 10 6 24 25 30 42 14 42 4 58 -85 129 -98 77 -124 110 -129
162 -17 173 -25 386 -25 718 0 212 -5 484 -10 605 -5 121 -10 352 -10 513 0
414 -13 468 -117 482 -68 8 -119 -14 -174 -79 -47 -54 -69 -64 -69 -31 0 30
-27 78 -51 91 -52 27 -130 4 -169 -51 -12 -16 -18 -30 -14 -30 3 0 1 -6 -5
-14 -9 -11 -12 -216 -12 -820 1 -856 2 -837 -44 -786 -10 11 -20 18 -23 15 -3
-2 -22 18 -44 46 l-40 49 3 723 c4 698 2 761 -20 819 -32 85 -130 97 -218 28
-28 -21 -55 -19 -81 7 -58 57 -268 109 -375 92 -29 -5 -66 -11 -83 -13 -65
-11 -234 -103 -234 -128 0 -21 -41 -5 -55 22 -29 56 -99 74 -173 45 -33 -14
-71 -55 -70 -78 0 -4 -3 -107 -7 -230 -3 -122 -8 -465 -10 -762 -2 -297 -8
-562 -13 -589 -7 -38 -18 -57 -44 -80 -100 -89 -121 -106 -127 -101 -9 10 -4
752 8 1121 13 377 4 588 -28 658 -28 64 -53 81 -121 81 -71 0 -101 -16 -129
-66 -25 -44 -46 -50 -55 -16 -3 13 -16 36 -30 51 -22 26 -28 28 -72 23 -27 -3
-59 -9 -72 -13 -23 -7 -23 -6 -17 57 4 35 8 70 10 77 4 9 159 12 727 13 398 1
777 5 843 9 66 3 458 7 871 8 l751 2 6 -37z m-3300 -140 c9 -220 9 -491 -3
-883 -5 -184 -12 -504 -15 -710 -2 -206 -8 -474 -11 -594 l-7 -219 -33 -37
c-41 -45 -43 -72 -6 -108 l27 -27 0 -165 c0 -289 -5 -469 -20 -715 -8 -132
-14 -298 -15 -369 0 -70 -3 -133 -7 -139 -4 -6 -9 -243 -12 -527 l-6 -515
-225 2 c-124 2 -231 5 -239 8 -12 5 -13 54 -6 328 4 177 6 351 6 387 -1 36 3
147 9 247 5 100 15 320 20 490 6 169 15 425 21 568 12 325 25 936 38 1795 6
366 13 814 17 997 l6 332 77 4 c42 1 144 4 227 5 l151 2 6 -157z m1600 11
c122 -31 226 -104 291 -203 108 -165 122 -331 41 -491 -50 -100 -114 -163
-215 -214 -71 -36 -86 -47 -88 -69 -3 -25 0 -27 33 -27 59 0 143 50 220 132
123 129 170 251 163 418 -5 93 -40 230 -59 230 -5 0 -9 6 -9 13 0 6 -18 38
-40 69 l-39 57 26 21 c59 46 114 31 132 -37 12 -42 13 -1079 2 -1311 l-6 -132
-37 30 c-21 18 -38 30 -38 28 0 -5 -67 54 -175 152 -39 36 -106 93 -148 128
-81 66 -101 90 -111 133 -5 23 -1 29 24 39 28 12 30 16 30 65 0 51 -1 54 -30
60 -36 8 -36 9 -10 35 27 27 25 54 -8 91 -23 26 -38 32 -81 37 -71 6 -121 -17
-151 -70 l-23 -41 24 -18 c13 -10 36 -19 52 -19 15 0 27 -4 27 -10 0 -5 -3
-10 -7 -11 -33 -3 -49 -11 -63 -30 -20 -25 -32 -23 -139 29 -158 77 -243 218
-243 401 0 104 19 176 68 257 125 209 367 315 587 258z m-1114 -43 c51 -51 51
-60 51 -1000 l0 -875 -80 -76 c-44 -41 -80 -73 -80 -71 0 2 -33 -27 -74 -65
-113 -106 -219 -193 -228 -188 -11 7 -10 634 2 999 6 165 12 509 13 764 l3
463 23 19 c46 38 95 19 105 -40 6 -42 19 -51 69 -51 27 0 79 19 54 20 -5 0 -1
7 7 16 9 8 16 22 16 31 0 21 58 73 81 73 10 0 28 -9 38 -19z m526 -22 c4 -10
4 -29 0 -41 -9 -33 -49 -122 -57 -128 -4 -3 -22 -37 -40 -75 -28 -60 -33 -83
-37 -160 -2 -49 2 -114 9 -145 16 -76 94 -231 138 -277 50 -51 150 -109 231
-134 109 -34 111 -35 111 -72 0 -30 -14 -47 -124 -155 -68 -66 -126 -119 -129
-116 -3 3 -63 -53 -133 -123 l-129 -128 -9 115 c-5 69 -4 303 3 585 6 259 11
538 11 621 0 185 16 242 75 264 27 10 73 -7 80 -31z m1425 5 c8 -8 19 -36 25
-62 l12 -47 48 -3 c76 -5 93 3 118 55 25 55 61 79 100 69 29 -7 45 -48 53
-135 13 -148 24 -678 27 -1313 l3 -726 -41 31 c-22 17 -77 62 -122 100 -46 37
-83 66 -83 64 0 -2 -27 21 -59 50 -33 30 -63 55 -67 56 -4 1 -28 24 -53 50
-36 39 -46 58 -53 100 -4 29 -12 406 -18 839 -12 875 -13 844 52 873 42 18 43
18 58 -1z m-938 -846 c2 -12 16 -29 32 -37 16 -9 29 -21 29 -26 0 -8 -29 -28
-55 -37 -13 -5 10 -166 27 -192 9 -13 35 -37 58 -52 23 -16 47 -35 52 -41 6
-7 26 -24 45 -38 43 -31 121 -99 215 -185 39 -36 127 -114 195 -175 68 -60
153 -137 189 -170 37 -33 97 -87 136 -120 38 -33 80 -73 93 -88 14 -15 26 -26
28 -24 2 2 26 -17 52 -42 44 -43 81 -77 297 -269 44 -39 99 -95 122 -124 l42
-53 -28 -30 c-16 -16 -34 -40 -40 -52 -9 -17 -9 -283 -1 -1070 5 -577 7 -1103
3 -1170 l-6 -122 -51 -5 c-28 -3 -85 -8 -127 -11 l-76 -6 -7 98 c-3 54 -8 427
-11 828 -3 402 -10 786 -16 855 -12 141 -35 273 -50 278 -5 2 -7 8 -4 13 3 5
1 19 -6 31 -23 45 -140 214 -192 278 -130 159 -381 313 -602 370 -85 22 -311
26 -410 8 -33 -6 -69 -12 -80 -13 -132 -18 -466 -144 -496 -188 -3 -5 -10 -8
-13 -7 -4 2 -38 -17 -74 -41 -86 -57 -218 -187 -267 -264 -37 -59 -76 -139
-73 -153 1 -4 -4 -20 -11 -36 -22 -55 -32 -191 -61 -906 -5 -135 -15 -446 -21
-692 l-12 -448 -33 -6 c-19 -3 -88 -5 -155 -3 -106 4 -122 6 -136 24 -13 17
-14 63 -9 350 4 182 11 438 16 570 5 132 14 386 19 565 6 179 13 350 16 380 3
30 6 168 8 305 l2 250 -30 39 -29 38 30 27 c17 14 55 47 85 72 30 26 88 75
129 109 41 34 173 157 293 273 533 516 622 601 780 747 l169 155 -7 60 c-8 72
-8 72 -51 90 -54 23 -43 52 19 46 13 -2 17 5 17 32 0 18 3 37 7 40 10 10 31
-12 35 -35z m-2460 -445 c39 -41 53 -128 43 -271 -4 -65 -10 -209 -14 -322
l-6 -205 -90 -3 c-49 -1 -97 2 -105 8 -13 8 -15 52 -13 306 1 170 7 320 13
350 6 30 11 56 10 59 -2 14 32 65 56 84 37 29 75 27 106 -6z m4505 -716 c13
-17 47 -58 76 -89 30 -32 51 -58 48 -58 -3 0 -1 -4 4 -8 6 -4 30 -32 54 -62
23 -30 74 -87 111 -127 38 -39 67 -73 65 -75 -2 -2 13 -23 34 -46 21 -23 37
-43 35 -45 -2 -2 11 -20 30 -40 19 -20 32 -37 29 -37 -2 0 10 -20 27 -44 16
-25 30 -49 30 -54 0 -5 -19 -12 -41 -15 -23 -3 -45 -11 -49 -17 -4 -6 -11 -12
-16 -13 -13 -3 -11 -379 5 -712 23 -509 29 -652 41 -1042 7 -210 9 -402 6
-427 l-7 -46 -218 0 -218 0 -6 128 c-4 70 -7 159 -7 197 0 39 -5 151 -10 250
-5 99 -10 252 -10 340 0 180 -26 964 -40 1240 -14 264 -30 827 -24 836 8 13
28 1 51 -34z m-4161 -229 c-4 -139 -11 -359 -16 -488 -6 -129 -14 -408 -19
-620 -11 -442 -30 -920 -36 -930 -3 -4 -5 -50 -5 -101 -1 -52 -5 -159 -11
-239 -6 -80 -11 -190 -12 -245 l-2 -100 -206 -3 -206 -2 3 52 c2 29 9 127 16
218 6 91 11 169 9 175 -1 5 3 64 9 130 7 66 12 143 11 170 0 28 4 89 9 137 6
48 10 113 11 145 0 32 6 135 14 228 18 224 34 563 40 865 l5 245 -85 -3 c-85
-3 -100 3 -70 28 9 7 14 15 12 17 -2 2 52 62 121 134 69 72 142 151 161 177
20 26 46 55 59 66 13 10 21 20 19 22 -2 3 10 19 27 37 17 18 51 56 76 85 75
86 74 88 66 -200z m2471 -83 c40 -8 94 -24 120 -34 27 -10 51 -19 55 -20 14
-3 70 -36 147 -86 96 -63 210 -171 269 -255 26 -36 49 -67 52 -70 5 -5 31 -61
66 -145 9 -22 16 -43 16 -47 -1 -4 2 -18 7 -32 6 -13 13 -44 16 -67 4 -24 10
-64 15 -89 10 -52 15 -188 14 -385 -1 -578 -5 -897 -13 -918 -6 -14 -12 -123
-16 -244 -3 -120 -8 -230 -11 -244 l-5 -26 -196 -6 c-232 -8 -1187 -7 -1633 2
l-315 6 -3 36 -3 36 68 7 c37 4 419 7 848 8 429 1 856 2 950 2 162 1 170 0
173 -19 6 -31 18 -38 41 -23 24 15 28 50 7 67 -11 9 -188 12 -693 12 -501 -1
-723 3 -849 13 -164 14 -244 32 -244 55 0 6 1 11 3 12 1 0 126 3 277 5 151 3
509 9 795 14 342 6 523 6 531 -1 7 -5 15 -21 18 -34 4 -14 10 -25 15 -25 20 0
41 33 39 60 -2 24 -7 29 -43 36 -22 4 -328 9 -680 10 -536 2 -651 4 -709 17
-69 16 -86 27 -86 60 0 16 16 17 193 17 105 0 377 3 604 7 l412 6 6 -26 c7
-27 36 -44 56 -32 6 4 9 28 8 54 l-3 46 -626 5 -625 5 -3 255 c-1 140 2 338 8
440 6 102 13 235 16 295 2 61 6 128 9 150 3 22 8 69 10 105 10 120 63 229 151
307 35 31 64 60 64 65 0 17 -106 -34 -141 -68 -43 -42 -103 -150 -124 -221
-24 -85 -34 -249 -46 -743 -10 -432 -26 -712 -44 -740 -3 -6 -20 -10 -37 -10
l-30 0 7 293 c4 160 8 456 10 657 2 351 8 425 41 590 25 125 151 275 330 396
94 63 226 104 335 104 20 0 42 7 49 15 10 12 7 15 -15 21 -46 12 -221 -4 -298
-26 -76 -23 -188 -84 -237 -130 -16 -15 -31 -26 -33 -24 -9 9 -127 -127 -151
-174 -25 -49 -53 -137 -60 -192 -20 -140 -26 -226 -32 -485 -3 -165 -10 -475
-14 -690 -9 -419 -15 -488 -41 -493 -9 -2 -20 5 -23 15 -16 39 -23 289 -15
498 5 121 11 328 14 460 9 426 33 717 65 800 6 17 11 30 9 30 -5 0 49 106 72
141 30 44 165 184 177 184 5 0 24 15 44 33 36 33 222 125 268 132 8 2 51 12
95 23 44 11 134 26 200 32 66 7 124 16 128 20 35 32 -271 49 -383 21 -193 -47
-324 -109 -461 -217 -92 -73 -198 -219 -211 -289 -1 -11 -6 -22 -10 -25 -4 -3
-9 -18 -12 -34 -3 -16 -10 -52 -15 -80 -19 -96 -31 -391 -41 -976 -6 -322 -15
-627 -21 -677 l-11 -93 -41 0 -40 0 8 338 c4 185 9 378 11 427 2 50 8 239 14
420 13 394 23 485 72 650 56 189 190 365 363 478 44 29 82 55 83 60 2 4 7 7
11 7 5 0 57 23 117 52 60 29 111 52 114 53 3 0 41 10 85 22 141 39 157 41 315
42 103 1 179 -4 227 -14z m2310 -742 c13 -31 18 -105 26 -379 5 -188 7 -349 4
-358 -4 -11 -19 -16 -46 -16 -39 0 -40 1 -45 43 -4 23 -8 139 -11 257 -2 118
-7 277 -11 353 l-7 137 37 0 c33 0 39 -4 53 -37z m-5270 -150 c-4 -93 -10
-248 -13 -345 l-7 -178 -60 0 -59 0 7 113 c5 61 8 119 7 127 0 8 3 71 9 140 5
69 11 149 12 177 1 29 5 53 9 53 4 0 10 9 13 21 6 19 59 59 79 59 5 0 6 -71 3
-167z"/>
<path d="M8860 13227 c-3 -3 -23 -7 -45 -11 -130 -18 -252 -76 -334 -157 -61
-60 -86 -106 -107 -195 -43 -188 87 -387 301 -462 210 -73 437 -37 620 98 101
75 140 162 139 315 0 88 -4 107 -28 158 -48 101 -172 203 -281 232 -16 5 -37
10 -45 12 -23 7 -214 16 -220 10z m190 -62 c108 -15 253 -122 302 -225 30 -61
36 -156 13 -212 -39 -99 -134 -202 -231 -251 -45 -23 -157 -47 -217 -47 -54 0
-175 20 -238 39 -57 17 -155 86 -188 131 -67 93 -78 205 -29 312 63 136 222
241 388 255 36 3 67 7 70 10 3 2 23 2 45 -1 22 -3 60 -8 85 -11z"/>
<path d="M8795 13055 c-115 -29 -171 -70 -214 -156 -37 -73 -39 -118 -10 -186
27 -63 61 -99 129 -133 80 -40 150 -54 239 -47 143 11 232 54 296 146 26 38
30 51 29 109 0 53 -7 80 -29 126 -52 104 -147 153 -298 154 -51 0 -114 -6
-142 -13z m246 -49 c74 -23 107 -44 139 -88 25 -35 30 -50 30 -100 0 -106 -44
-161 -163 -202 -48 -18 -81 -22 -150 -20 -123 2 -172 18 -229 75 -41 41 -47
53 -53 103 -9 72 12 124 69 169 85 68 247 96 357 63z"/>
<path d="M8332 11694 c-47 -17 -72 -43 -83 -90 -8 -35 -15 -473 -22 -1449 -1
-181 2 -336 6 -342 6 -9 43 -13 128 -13 102 0 122 3 137 18 18 18 19 49 26
423 3 222 6 607 7 854 0 372 -3 460 -15 505 -15 52 -51 99 -79 101 -7 0 -25 2
-40 3 -16 1 -45 -4 -65 -10z m94 -62 c38 -25 39 -36 42 -717 2 -363 0 -751 -3
-862 l-7 -201 -58 -1 c-37 0 -63 5 -70 13 -7 10 -9 90 -6 267 16 920 17 1065
8 1189 -15 200 8 320 61 320 12 0 27 -4 33 -8z"/>
<path d="M9343 11679 c-56 -10 -80 -24 -97 -57 -30 -59 -34 -189 -32 -980 2
-678 4 -795 17 -803 8 -5 66 -9 130 -9 97 0 118 3 123 16 9 23 6 1285 -3 1539
-5 134 -13 230 -21 246 -17 38 -65 57 -117 48z m62 -79 c2 -8 8 -41 14 -73 6
-36 10 -256 11 -605 0 -301 3 -648 6 -772 3 -124 2 -230 -3 -236 -4 -6 -33
-14 -64 -17 l-57 -7 -6 33 c-10 58 -5 1417 5 1522 19 175 20 177 62 173 17 -2
31 -9 32 -18z"/>
<path d="M7719 8268 c-7 -24 -13 -97 -13 -163 0 -122 11 -169 38 -159 15 6 31
254 20 322 -9 55 -30 54 -45 0z"/>
<path d="M11400 6375 c-69 -14 -154 -60 -168 -91 -18 -39 4 -39 81 0 100 51
178 55 272 14 37 -16 68 -28 71 -26 7 8 -58 78 -67 73 -5 -4 -9 -2 -9 4 0 23
-113 40 -180 26z"/>
<path d="M11374 6155 c-33 -20 -47 -37 -69 -88 -24 -57 -27 -76 -28 -198 -4
-259 3 -584 13 -599 12 -20 318 -32 338 -13 9 9 12 93 12 352 0 433 -12 502
-93 551 -46 29 -121 26 -173 -5z m134 -61 c13 -9 34 -37 45 -62 21 -45 22 -63
25 -389 l3 -343 -121 0 -120 0 -2 263 c-4 368 -4 366 4 424 8 61 19 84 55 113
31 24 68 22 111 -6z"/>
<path d="M11811 6079 c-18 -30 -33 -125 -35 -224 -3 -147 17 -591 27 -603 13
-16 98 -10 143 10 l27 13 -6 345 c-6 328 -16 449 -39 478 -6 6 -30 12 -54 12
-39 0 -47 -4 -63 -31z m83 -51 c3 -18 5 -40 5 -48 0 -8 3 -167 7 -352 l7 -338
-31 0 c-30 0 -31 2 -39 58 -4 31 -7 195 -7 364 1 283 2 310 19 328 25 28 33
25 39 -12z"/>
<path d="M11875 4351 c-19 -25 -20 -41 -20 -404 0 -325 2 -379 15 -387 20 -13
97 -12 121 1 20 10 20 18 15 332 -5 279 -16 460 -28 472 -2 2 -21 6 -43 8 -34
4 -43 1 -60 -22z m65 -404 c0 -266 -3 -338 -12 -335 -10 4 -15 81 -21 314 -4
170 -5 329 -2 354 6 41 8 43 21 25 11 -15 14 -83 14 -358z"/>
<path d="M6380 6374 c-42 -8 -110 -35 -110 -45 0 -5 -7 -9 -15 -9 -22 0 -85
-60 -85 -81 0 -31 38 -23 77 16 50 50 141 74 218 58 31 -7 69 -22 85 -33 17
-12 30 -18 30 -14 0 4 6 1 13 -8 21 -26 43 -28 45 -3 2 28 -44 80 -89 99 -38
16 -130 27 -169 20z"/>
<path d="M5823 6343 c-13 -2 -23 -9 -23 -15 0 -6 -3 -9 -6 -5 -11 10 -61 -14
-89 -43 -42 -44 -12 -48 69 -11 79 37 108 38 170 7 51 -26 68 -18 46 23 -22
42 -88 59 -167 44z"/>
<path d="M5878 6147 c-12 -4 -30 -15 -40 -24 -26 -23 -50 -119 -49 -191 1 -35
-3 -123 -9 -195 -5 -73 -12 -209 -15 -303 l-5 -170 24 -14 c24 -13 149 -10
163 4 3 3 10 97 14 208 4 112 13 300 19 418 8 161 8 221 -1 242 -6 15 -14 28
-18 29 -36 4 -64 3 -83 -4z m38 -275 c-2 -86 -7 -251 -12 -365 l-7 -208 -36 3
-36 3 3 175 c2 96 10 265 18 374 11 163 17 202 31 218 17 20 18 19 30 -11 9
-22 12 -77 9 -189z"/>
<path d="M5777 4405 c-8 -8 -17 -12 -19 -9 -7 6 -36 -65 -48 -116 -5 -25 -10
-97 -10 -160 0 -63 -5 -187 -12 -275 -7 -105 -8 -174 -2 -200 l10 -40 81 -3
c91 -3 90 -4 98 81 3 23 7 62 10 87 3 25 7 165 10 311 5 276 2 306 -37 330
-21 14 -65 10 -81 -6z m49 -102 c7 -25 -1 -282 -14 -511 -5 -83 -11 -115 -22
-122 -8 -5 -16 -7 -19 -4 -12 12 7 621 21 647 13 25 27 21 34 -10z"/>
<path d="M8925 7393 c-16 -2 -54 -11 -82 -20 -65 -19 -69 -41 -18 -89 41 -38
102 -58 148 -48 41 8 54 19 78 65 22 44 25 78 7 83 -23 7 -103 12 -133 9z"/>
<path d="M9140 7305 c-6 -15 -10 -31 -10 -37 0 -6 -25 -34 -56 -63 l-57 -52
32 -46 c48 -71 55 -72 112 -12 27 29 67 60 89 70 44 20 46 24 26 63 -18 34
-51 65 -94 86 -32 16 -32 16 -42 -9z"/>
<path d="M8664 7294 c-17 -8 -40 -31 -50 -49 l-18 -34 42 -37 c23 -20 49 -48
57 -63 31 -57 29 -56 79 -21 25 18 53 45 62 59 16 24 16 26 -1 36 -34 19 -85
67 -85 79 0 15 -32 46 -46 46 -5 0 -23 -7 -40 -16z"/>
<path d="M8513 7108 c-31 -34 -44 -88 -42 -166 l2 -70 30 9 c90 26 130 150 70
218 -15 17 -30 31 -33 31 -4 0 -16 -10 -27 -22z"/>
<path d="M9273 7090 c-42 -25 -60 -63 -61 -128 0 -37 6 -59 20 -77 21 -26 84
-59 98 -50 17 10 37 93 38 152 0 43 -6 70 -19 92 -22 36 -33 38 -76 11z"/>
<path d="M8885 7075 c-43 -22 -55 -43 -55 -92 0 -42 2 -45 43 -63 53 -25 88
-25 115 -2 47 41 45 113 -4 151 -32 25 -58 26 -99 6z"/>
<path d="M8661 6926 c-19 -33 -52 -70 -87 -96 -33 -25 -53 -47 -50 -55 25 -65
121 -159 155 -153 8 2 25 19 38 38 30 48 51 70 101 109 l43 34 -22 23 c-12 13
-28 24 -35 24 -17 0 -30 25 -39 73 -6 28 -14 41 -32 48 -37 14 -39 13 -72 -45z
m75 -38 c4 -13 23 -38 43 -57 26 -24 32 -35 22 -39 -8 -2 -41 -29 -73 -59 -56
-51 -61 -54 -81 -40 -30 20 -34 69 -8 106 12 16 21 34 21 40 0 6 3 11 8 11 4
0 15 14 24 30 20 36 34 38 44 8z"/>
<path d="M9084 6906 c-9 -18 -36 -46 -60 -61 -24 -15 -44 -32 -44 -38 0 -6 24
-36 53 -67 28 -31 60 -66 69 -78 10 -12 28 -22 41 -22 26 0 70 38 92 80 14 28
14 30 -23 72 -20 24 -48 67 -61 96 -14 29 -30 52 -38 52 -7 0 -21 -15 -29 -34z"/>
<path d="M8915 6154 c-16 -8 -36 -22 -45 -29 -8 -8 -45 -40 -82 -70 -38 -31
-68 -60 -68 -66 0 -5 -5 -9 -12 -9 -7 0 -73 -60 -147 -132 -219 -215 -261
-255 -261 -249 0 3 -98 -91 -218 -209 -120 -118 -290 -283 -378 -367 l-159
-151 39 3 c26 2 57 16 92 42 69 50 448 402 497 460 20 25 37 42 37 37 0 -4 60
51 133 123 72 72 185 179 249 238 64 59 118 110 120 114 2 4 40 38 86 75 45
38 82 72 82 75 0 4 19 17 43 30 l43 23 30 -28 c16 -16 67 -60 114 -99 46 -38
105 -88 130 -111 25 -22 59 -50 75 -63 37 -28 135 -114 235 -206 41 -38 156
-144 254 -235 99 -91 262 -243 363 -337 102 -95 191 -173 198 -173 7 0 15 -5
17 -12 5 -15 28 -1 28 17 0 7 -60 71 -132 142 -129 126 -308 288 -308 279 0
-2 -15 10 -33 28 -140 132 -167 156 -176 156 -6 0 -11 4 -11 9 0 4 -53 57
-117 116 -65 59 -136 124 -158 145 -44 41 -161 141 -280 240 -43 36 -97 82
-120 102 -23 21 -45 35 -48 31 -4 -3 -7 -1 -7 4 0 6 -17 25 -38 42 -37 29 -40
29 -67 15z"/>
<path d="M8870 5819 c-51 -23 -78 -61 -92 -130 -9 -45 -17 -60 -32 -65 -27 -8
-74 -52 -92 -86 -33 -62 -7 -171 52 -217 35 -27 96 -27 170 0 l56 21 39 -22
c56 -31 135 -36 179 -12 75 42 114 178 70 249 -19 32 -57 63 -82 67 -28 4 -36
18 -43 69 -8 59 -24 94 -53 120 -27 25 -123 28 -172 6z m114 -49 c39 -14 60
-55 59 -113 -2 -51 13 -76 45 -77 25 0 74 -43 88 -75 18 -44 3 -95 -40 -133
-43 -37 -71 -35 -141 13 -57 40 -70 39 -109 -4 -43 -48 -138 -31 -176 31 -24
40 -25 59 -5 98 13 25 107 87 125 83 3 -1 5 20 6 47 2 100 70 160 148 130z"/>
<path d="M9297 5013 c-3 -5 72 -48 167 -95 126 -64 189 -102 235 -143 34 -30
67 -55 74 -55 7 0 6 4 -3 10 -8 5 -11 10 -5 10 16 0 -87 99 -150 145 -62 44
-185 110 -185 99 0 -4 -7 0 -16 7 -9 7 -21 14 -28 15 -6 1 -27 5 -47 9 -20 4
-39 3 -42 -2z"/>
<path d="M9660 4440 c0 -6 16 -37 37 -68 42 -66 60 -108 78 -177 34 -131 38
-227 33 -811 -4 -575 -4 -579 16 -597 16 -14 22 -15 23 -5 26 179 32 1025 8
1228 -24 209 -38 257 -99 352 -43 68 -96 110 -96 78z"/>
<path d="M8915 4394 c-87 -13 -215 -63 -215 -84 0 -6 -3 -9 -8 -7 -14 4 -80
-65 -106 -113 -61 -111 -71 -205 -86 -785 -6 -225 -14 -413 -16 -417 -3 -4
-14 -8 -25 -8 -24 0 -25 -15 -1 -26 9 -5 243 -10 519 -12 l502 -3 16 24 c32
49 15 991 -19 1124 -35 135 -148 241 -305 289 -48 14 -204 25 -256 18z m295
-96 c86 -41 179 -141 195 -210 4 -16 10 -28 14 -28 4 0 8 -12 9 -27 1 -16 6
-72 12 -127 5 -54 10 -277 10 -496 0 -315 -3 -400 -13 -408 -16 -14 -844 -24
-852 -11 -10 15 -6 546 5 662 15 164 30 278 42 315 5 18 11 39 12 45 1 7 17
40 35 75 49 91 125 165 213 208 71 34 76 35 168 32 77 -3 105 -9 150 -30z"/>
<path d="M9510 4261 c0 -16 6 -36 13 -43 18 -18 47 -117 53 -180 3 -29 9 -83
14 -119 5 -36 9 -270 10 -520 0 -299 3 -455 10 -457 6 -2 8 -8 4 -13 -8 -13
20 -11 34 3 16 16 16 542 1 873 -9 202 -15 253 -35 320 -26 89 -53 138 -83
155 -19 10 -21 8 -21 -19z"/>
</g>
</svg>
